<svg width="39" height="38" viewBox="0 0 39 38" fill="none" xmlns="http://www.w3.org/2000/svg">
<path d="M9.75 11.4L11.1716 29.4055C11.2496 30.3954 12.0966 31.16 13.1157 31.16H25.8843C26.9034 31.16 27.7505 30.3954 27.8285 29.4055L29.25 11.4" fill="#F37E98"/>
<path d="M25.35 14.44V27.74C25.35 28.367 24.8235 28.88 24.18 28.88C23.5365 28.88 23.01 28.367 23.01 27.74V14.44C23.01 13.813 23.5365 13.3 24.18 13.3C24.8235 13.3 25.35 13.813 25.35 14.44ZM20.67 14.44V27.74C20.67 28.367 20.1435 28.88 19.5 28.88C18.8565 28.88 18.33 28.367 18.33 27.74V14.44C18.33 13.813 18.8565 13.3 19.5 13.3C20.1435 13.3 20.67 13.813 20.67 14.44ZM15.99 14.44V27.74C15.99 28.367 15.4635 28.88 14.82 28.88C14.1765 28.88 13.65 28.367 13.65 27.74V14.44C13.65 13.813 14.1765 13.3 14.82 13.3C15.4635 13.3 15.99 13.813 15.99 14.44ZM30.03 9.12H28.47L27.7543 7.95796C27.4724 7.50006 26.9646 7.22 26.4166 7.22H12.5833C12.0354 7.22 11.5276 7.50006 11.2456 7.95796L10.53 9.12H8.96999C8.32376 9.12 7.79999 9.63034 7.79999 10.26C7.79999 10.8897 8.32376 11.4 8.96999 11.4H30.03C30.6762 11.4 31.2 10.8897 31.2 10.26C31.2 9.63034 30.6762 9.12 30.03 9.12Z" fill="#F15B6C"/>
<path d="M25.8843 31.54H13.1157C11.9004 31.54 10.8755 30.6151 10.7827 29.4348L9.36115 11.4293L10.1388 11.3707L11.5604 29.3767C11.6224 30.1636 12.3056 30.78 13.1157 30.78H25.8843C26.6943 30.78 27.3776 30.1636 27.4396 29.377L28.8611 11.3707L29.6388 11.4293L28.2173 29.4352C28.124 30.6151 27.0991 31.54 25.8843 31.54ZM21.84 7.6C21.6247 7.6 21.45 7.43014 21.45 7.22V6.08C21.45 5.87024 21.2749 5.7 21.06 5.7H17.94C17.7251 5.7 17.55 5.87024 17.55 6.08V7.22C17.55 7.43014 17.3753 7.6 17.16 7.6C16.9447 7.6 16.77 7.43014 16.77 7.22V6.08C16.77 5.45148 17.2949 4.94 17.94 4.94H21.06C21.705 4.94 22.23 5.45148 22.23 6.08V7.22C22.23 7.43014 22.0553 7.6 21.84 7.6Z" fill="#1F212B"/>
<path d="M30.03 11.78H8.96997C8.10963 11.78 7.40997 11.0983 7.40997 10.26C7.40997 9.42172 8.10963 8.74 8.96997 8.74H10.3092L10.911 7.76264C11.2612 7.19378 11.902 6.84 12.5833 6.84H26.417C27.0983 6.84 27.7387 7.19378 28.0889 7.76264L28.6907 8.74H30.03C30.8903 8.74 31.59 9.42172 31.59 10.26C31.59 11.0983 30.8903 11.78 30.03 11.78ZM8.96997 9.5C8.5398 9.5 8.18997 9.84086 8.18997 10.26C8.18997 10.6791 8.5398 11.02 8.96997 11.02H30.03C30.4601 11.02 30.81 10.6791 30.81 10.26C30.81 9.84086 30.4601 9.5 30.03 9.5H28.47C28.3331 9.5 28.2059 9.4297 28.1357 9.3157L27.4201 8.15366C27.2099 7.81242 26.8253 7.6 26.4166 7.6H12.5833C12.1746 7.6 11.7905 7.81242 11.5802 8.15366L10.8646 9.3157C10.794 9.4297 10.6669 9.5 10.53 9.5H8.96997Z" fill="#1F212B"/>
<path d="M23.985 9.5H9.945C9.83736 9.5 9.75 9.41488 9.75 9.31C9.75 9.20512 9.83736 9.12 9.945 9.12H23.985C24.0926 9.12 24.18 9.20512 24.18 9.31C24.18 9.41488 24.0926 9.5 23.985 9.5ZM28.665 9.5H26.715C26.6074 9.5 26.52 9.41488 26.52 9.31C26.52 9.20512 26.6074 9.12 26.715 9.12H28.665C28.7726 9.12 28.86 9.20512 28.86 9.31C28.86 9.41488 28.7726 9.5 28.665 9.5ZM25.935 9.5H25.155C25.0474 9.5 24.96 9.41488 24.96 9.31C24.96 9.20512 25.0474 9.12 25.155 9.12H25.935C26.0426 9.12 26.13 9.20512 26.13 9.31C26.13 9.41488 26.0426 9.5 25.935 9.5ZM19.5 28.88C18.8549 28.88 18.33 28.3685 18.33 27.74V14.44C18.33 13.8115 18.8549 13.3 19.5 13.3C20.1451 13.3 20.67 13.8115 20.67 14.44V24.13C20.67 24.2349 20.5826 24.32 20.475 24.32C20.3674 24.32 20.28 24.2349 20.28 24.13V14.44C20.28 14.0209 19.9302 13.68 19.5 13.68C19.0698 13.68 18.72 14.0209 18.72 14.44V27.74C18.72 28.1591 19.0698 28.5 19.5 28.5C19.9302 28.5 20.28 28.1591 20.28 27.74V26.41C20.28 26.3051 20.3674 26.22 20.475 26.22C20.5826 26.22 20.67 26.3051 20.67 26.41V27.74C20.67 28.3685 20.1451 28.88 19.5 28.88ZM24.18 28.88C23.5349 28.88 23.01 28.3685 23.01 27.74V18.05C23.01 17.9451 23.0974 17.86 23.205 17.86C23.3126 17.86 23.4 17.9451 23.4 18.05V27.74C23.4 28.1591 23.7498 28.5 24.18 28.5C24.6102 28.5 24.96 28.1591 24.96 27.74V14.44C24.96 14.0209 24.6102 13.68 24.18 13.68C23.7498 13.68 23.4 14.0209 23.4 14.44V15.01C23.4 15.1149 23.3126 15.2 23.205 15.2C23.0974 15.2 23.01 15.1149 23.01 15.01V14.44C23.01 13.8115 23.5349 13.3 24.18 13.3C24.8251 13.3 25.35 13.8115 25.35 14.44V27.74C25.35 28.3685 24.8251 28.88 24.18 28.88Z" fill="#1F212B"/>
<path d="M23.205 17.1C23.0974 17.1 23.01 17.0149 23.01 16.91V16.15C23.01 16.0451 23.0974 15.96 23.205 15.96C23.3127 15.96 23.4 16.0451 23.4 16.15V16.91C23.4 17.0149 23.3127 17.1 23.205 17.1ZM14.82 28.88C14.175 28.88 13.65 28.3685 13.65 27.74V14.44C13.65 13.8115 14.175 13.3 14.82 13.3C15.4651 13.3 15.99 13.8115 15.99 14.44V27.74C15.99 28.3685 15.4651 28.88 14.82 28.88ZM14.82 13.68C14.3899 13.68 14.04 14.0208 14.04 14.44V27.74C14.04 28.1591 14.3899 28.5 14.82 28.5C15.2502 28.5 15.6 28.1591 15.6 27.74V14.44C15.6 14.0208 15.2502 13.68 14.82 13.68Z" fill="#1F212B"/>
</svg>
