<svg width="60" height="59" viewBox="0 0 60 59" fill="none" xmlns="http://www.w3.org/2000/svg">
<path d="M15 17.7L17.187 45.656C17.307 47.1929 18.6102 48.38 20.178 48.38H39.822C41.3898 48.38 42.693 47.1929 42.813 45.656L45 17.7" fill="#F37E98"/>
<path d="M39 22.42V43.07C39 44.0435 38.19 44.84 37.2 44.84C36.21 44.84 35.4 44.0435 35.4 43.07V22.42C35.4 21.4465 36.21 20.65 37.2 20.65C38.19 20.65 39 21.4465 39 22.42ZM31.8 22.42V43.07C31.8 44.0435 30.99 44.84 30 44.84C29.01 44.84 28.2 44.0435 28.2 43.07V22.42C28.2 21.4465 29.01 20.65 30 20.65C30.99 20.65 31.8 21.4465 31.8 22.42ZM24.6 22.42V43.07C24.6 44.0435 23.79 44.84 22.8 44.84C21.81 44.84 21 44.0435 21 43.07V22.42C21 21.4465 21.81 20.65 22.8 20.65C23.79 20.65 24.6 21.4465 24.6 22.42ZM46.2 14.16H43.8L42.699 12.3558C42.2652 11.6448 41.484 11.21 40.641 11.21H19.359C18.516 11.21 17.7348 11.6448 17.301 12.3558L16.2 14.16H13.8C12.8058 14.16 12 14.9524 12 15.93C12 16.9076 12.8058 17.7 13.8 17.7H46.2C47.1942 17.7 48 16.9076 48 15.93C48 14.9524 47.1942 14.16 46.2 14.16Z" fill="#F15B6C"/>
<path d="M39.822 48.97H20.178C18.3084 48.97 16.7316 47.534 16.5888 45.7014L14.4018 17.7454L15.5982 17.6546L17.7852 45.6111C17.8806 46.833 18.9318 47.79 20.178 47.79H39.822C41.0682 47.79 42.1194 46.833 42.2148 45.6117L44.4018 17.6546L45.5982 17.7454L43.4112 45.702C43.2678 47.534 41.691 48.97 39.822 48.97ZM33.6 11.8C33.2688 11.8 33 11.5363 33 11.21V9.44001C33 9.11433 32.7306 8.85001 32.4 8.85001H27.6C27.2694 8.85001 27 9.11433 27 9.44001V11.21C27 11.5363 26.7312 11.8 26.4 11.8C26.0688 11.8 25.8 11.5363 25.8 11.21V9.44001C25.8 8.46415 26.6076 7.67001 27.6 7.67001H32.4C33.3924 7.67001 34.2 8.46415 34.2 9.44001V11.21C34.2 11.5363 33.9312 11.8 33.6 11.8Z" fill="#1F212B"/>
<path d="M46.2 18.29H13.8C12.4764 18.29 11.4 17.2315 11.4 15.93C11.4 14.6285 12.4764 13.57 13.8 13.57H15.8604L16.7862 12.0525C17.325 11.1693 18.3108 10.62 19.359 10.62H40.6416C41.6898 10.62 42.675 11.1693 43.2138 12.0525L44.1396 13.57H46.2C47.5236 13.57 48.6 14.6285 48.6 15.93C48.6 17.2315 47.5236 18.29 46.2 18.29ZM13.8 14.75C13.1382 14.75 12.6 15.2792 12.6 15.93C12.6 16.5808 13.1382 17.11 13.8 17.11H46.2C46.8618 17.11 47.4 16.5808 47.4 15.93C47.4 15.2792 46.8618 14.75 46.2 14.75H43.8C43.5894 14.75 43.3938 14.6408 43.2858 14.4638L42.1848 12.6596C41.8614 12.1298 41.2698 11.8 40.641 11.8H19.359C18.7302 11.8 18.1392 12.1298 17.8158 12.6596L16.7148 14.4638C16.6062 14.6408 16.4106 14.75 16.2 14.75H13.8Z" fill="#1F212B"/>
<path d="M36.9 14.75H15.3C15.1344 14.75 15 14.6178 15 14.455C15 14.2922 15.1344 14.16 15.3 14.16H36.9C37.0656 14.16 37.2 14.2922 37.2 14.455C37.2 14.6178 37.0656 14.75 36.9 14.75ZM44.1 14.75H41.1C40.9344 14.75 40.8 14.6178 40.8 14.455C40.8 14.2922 40.9344 14.16 41.1 14.16H44.1C44.2656 14.16 44.4 14.2922 44.4 14.455C44.4 14.6178 44.2656 14.75 44.1 14.75ZM39.9 14.75H38.7C38.5344 14.75 38.4 14.6178 38.4 14.455C38.4 14.2922 38.5344 14.16 38.7 14.16H39.9C40.0656 14.16 40.2 14.2922 40.2 14.455C40.2 14.6178 40.0656 14.75 39.9 14.75ZM30 44.84C29.0076 44.84 28.2 44.0459 28.2 43.07V22.42C28.2 21.4441 29.0076 20.65 30 20.65C30.9924 20.65 31.8 21.4441 31.8 22.42V37.465C31.8 37.6278 31.6656 37.76 31.5 37.76C31.3344 37.76 31.2 37.6278 31.2 37.465V22.42C31.2 21.7692 30.6618 21.24 30 21.24C29.3382 21.24 28.8 21.7692 28.8 22.42V43.07C28.8 43.7208 29.3382 44.25 30 44.25C30.6618 44.25 31.2 43.7208 31.2 43.07V41.005C31.2 40.8422 31.3344 40.71 31.5 40.71C31.6656 40.71 31.8 40.8422 31.8 41.005V43.07C31.8 44.0459 30.9924 44.84 30 44.84ZM37.2 44.84C36.2076 44.84 35.4 44.0459 35.4 43.07V28.025C35.4 27.8622 35.5344 27.73 35.7 27.73C35.8656 27.73 36 27.8622 36 28.025V43.07C36 43.7208 36.5382 44.25 37.2 44.25C37.8618 44.25 38.4 43.7208 38.4 43.07V22.42C38.4 21.7692 37.8618 21.24 37.2 21.24C36.5382 21.24 36 21.7692 36 22.42V23.305C36 23.4678 35.8656 23.6 35.7 23.6C35.5344 23.6 35.4 23.4678 35.4 23.305V22.42C35.4 21.4441 36.2076 20.65 37.2 20.65C38.1924 20.65 39 21.4441 39 22.42V43.07C39 44.0459 38.1924 44.84 37.2 44.84Z" fill="#1F212B"/>
<path d="M35.7 26.55C35.5344 26.55 35.4 26.4178 35.4 26.255V25.075C35.4 24.9122 35.5344 24.78 35.7 24.78C35.8656 24.78 36 24.9122 36 25.075V26.255C36 26.4178 35.8656 26.55 35.7 26.55ZM22.8 44.84C21.8076 44.84 21 44.0459 21 43.07V22.42C21 21.4441 21.8076 20.65 22.8 20.65C23.7924 20.65 24.6 21.4441 24.6 22.42V43.07C24.6 44.0459 23.7924 44.84 22.8 44.84ZM22.8 21.24C22.1382 21.24 21.6 21.7692 21.6 22.42V43.07C21.6 43.7208 22.1382 44.25 22.8 44.25C23.4618 44.25 24 43.7208 24 43.07V22.42C24 21.7692 23.4618 21.24 22.8 21.24Z" fill="#1F212B"/>
</svg>
